# xmcd
#
# Track frame offsets:
#	150
#	22777
#	37945
#	54214
#	59677
#	75730
#	88400
#	104465
#	122177
#	136895
#	144130
#	162310
#
# Disc length: 2302 seconds
#
# Revision: 1
# Processed by: cddbd v1.5.1PL2 Copyright (c) Steve Scherf et al.
# Submitted via: audiograbber 1.83.01
#
DISCID=9808fc0c
DTITLE=Don McLean - Prime Time
DYEAR=1900
DGENRE=
TTITLE0=PrimeTime
TTITLE1=Stature
TTITLE2=Jump
TTITLE3=Redwing
TTITLE4=The Wrong Thing To Do
TTITLE5=The Pattern is Broken
TTITLE6=When Love Begins
TTITLE7=Colour TV Blues
TTITLE8=Building My Body
TTITLE9=Down the Road - Sally Anne
TTITLE10=When a Good Thing Goes Bad
TTITLE11=South Of The Border
EXTD=
EXTT0=
EXTT1=
EXTT2=
EXTT3=
EXTT4=
EXTT5=
EXTT6=
EXTT7=
EXTT8=
EXTT9=
EXTT10=
EXTT11=
PLAYORDER=
